<svg xmlns="http://www.w3.org/2000/svg" viewBox="0 0 48 48" fill="none">
  <path d="M9 45 V21 A15 15 0 0 1 39 21 V45" stroke="#C9A24A" stroke-width="1.9" stroke-linecap="round" stroke-linejoin="round"/>
  <path d="M13.5 45 V22 A10.5 10.5 0 0 1 34.5 22 V45" stroke="#C9A24A" stroke-width="0.9" stroke-linecap="round" stroke-linejoin="round"/>
  <path d="M13.5 34 H34.5" stroke="#C9A24A" stroke-width="0.8" stroke-linecap="round"/>
  <path d="M24 34 L13.5 45 M24 34 L19 45 M24 34 L24 45 M24 34 L29 45 M24 34 L34.5 45" stroke="#C9A24A" stroke-width="0.8" stroke-linecap="round"/>
  <path d="M13.5 35.6 H34.5 M13.5 38.2 H34.5 M13.5 42.2 H34.5" stroke="#C9A24A" stroke-width="0.55" stroke-linecap="round"/>
  <path d="M5 45.2 H43" stroke="#C9A24A" stroke-width="1.9" stroke-linecap="round"/>
  <path d="M24 17.2 L25.3 22.7 L30.8 24 L25.3 25.3 L24 30.8 L22.7 25.3 L17.2 24 L22.7 22.7 Z" fill="#C9A24A"/>
  <path d="M24 3.4 L26.4 6 L24 8.6 L21.6 6 Z" fill="#C9A24A"/>
</svg>
